<?xml version="1.0" encoding="UTF-8"?>
<svg xmlns="http://www.w3.org/2000/svg" xmlns:xlink="http://www.w3.org/1999/xlink" width="45px" height="44px" viewBox="0 0 44 44" version="1.1">
<g id="surface1">
<path style=" stroke:none;fill-rule:nonzero;fill:rgb(13.333333%,12.941176%,35.686275%);fill-opacity:1;" d="M 22 0 C 17.703125 0 13.503906 1.289062 9.933594 3.707031 C 6.363281 6.125 3.578125 9.5625 1.933594 13.582031 C 0.292969 17.601562 -0.136719 22.023438 0.699219 26.292969 C 1.539062 30.558594 3.605469 34.480469 6.644531 37.554688 C 9.679688 40.632812 13.550781 42.726562 17.761719 43.578125 C 21.976562 44.425781 26.34375 43.992188 30.3125 42.324219 C 34.28125 40.660156 37.671875 37.839844 40.058594 34.222656 C 42.445312 30.605469 43.71875 26.351562 43.71875 22 C 43.71875 16.164062 41.429688 10.570312 37.355469 6.445312 C 33.285156 2.316406 27.761719 0 22 0 Z M 18.898438 30.785156 L 11.140625 22.925781 L 13.609375 20.429688 L 18.898438 25.789062 L 30.390625 14.144531 L 32.867188 16.636719 Z M 18.898438 30.785156 "/>
</g>
</svg>
