<svg width="78" height="77" viewBox="0 0 78 77" fill="none" xmlns="http://www.w3.org/2000/svg">
    <path d="M39 0C31.3854 0 23.9419 2.25799 17.6106 6.48842C11.2793 10.7189 6.34463 16.7317 3.43066 23.7667C0.516681 30.8016 -0.245747 38.5427 1.23978 46.011C2.72531 53.4792 6.39208 60.3393 11.7764 65.7236C17.1607 71.1079 24.0208 74.7747 31.489 76.2602C38.9573 77.7458 46.6984 76.9833 53.7333 74.0694C60.7683 71.1554 66.7812 66.2207 71.0116 59.8895C75.242 53.5582 77.5 46.1146 77.5 38.5C77.5 28.2892 73.4438 18.4965 66.2236 11.2764C59.0035 4.05624 49.2109 0 39 0ZM33.5 53.8725L19.75 40.1225L24.1225 35.75L33.5 45.1275L53.8775 24.75L58.2665 29.1115L33.5 53.8725Z" fill="#22215B"/>
</svg>
