<svg width="22" height="24" viewBox="0 0 22 24" fill="none" xmlns="http://www.w3.org/2000/svg">
<path d="M14.9241 10.7191C14.9882 10.7888 15.039 10.8716 15.0736 10.9627C15.1083 11.0538 15.1261 11.1515 15.1261 11.2501C15.1261 11.3488 15.1083 11.4465 15.0736 11.5376C15.039 11.6287 14.9882 11.7115 14.9241 11.7811L10.7991 16.2811C10.7353 16.351 10.6594 16.4064 10.5759 16.4442C10.4924 16.482 10.4028 16.5015 10.3124 16.5015C10.222 16.5015 10.1324 16.482 10.0489 16.4442C9.96537 16.4064 9.8895 16.351 9.82564 16.2811L7.76314 14.0311C7.69922 13.9614 7.64852 13.8786 7.61392 13.7875C7.57933 13.6964 7.56152 13.5987 7.56152 13.5001C7.56152 13.4015 7.57933 13.3039 7.61392 13.2127C7.64852 13.1216 7.69922 13.0389 7.76314 12.9691C7.89224 12.8283 8.06733 12.7492 8.24989 12.7492C8.34029 12.7492 8.4298 12.7686 8.51332 12.8063C8.59684 12.8441 8.67272 12.8994 8.73664 12.9691L10.3124 14.6896L13.9506 10.7191C14.0145 10.6493 14.0904 10.5939 14.1739 10.5561C14.2574 10.5182 14.347 10.4988 14.4374 10.4988C14.5278 10.4988 14.6174 10.5182 14.7009 10.5561C14.7844 10.5939 14.8603 10.6493 14.9241 10.7191Z" fill="black"/>
<path d="M4.8125 0C4.99484 0 5.1697 0.0790176 5.29864 0.21967C5.42757 0.360322 5.5 0.551088 5.5 0.75V1.5H16.5V0.75C16.5 0.551088 16.5724 0.360322 16.7014 0.21967C16.8303 0.0790176 17.0052 0 17.1875 0C17.3698 0 17.5447 0.0790176 17.6736 0.21967C17.8026 0.360322 17.875 0.551088 17.875 0.75V1.5H19.25C19.9793 1.5 20.6788 1.81607 21.1945 2.37868C21.7103 2.94129 22 3.70435 22 4.5V21C22 21.7956 21.7103 22.5587 21.1945 23.1213C20.6788 23.6839 19.9793 24 19.25 24H2.75C2.02065 24 1.32118 23.6839 0.805456 23.1213C0.289731 22.5587 0 21.7956 0 21V4.5C0 3.70435 0.289731 2.94129 0.805456 2.37868C1.32118 1.81607 2.02065 1.5 2.75 1.5H4.125V0.75C4.125 0.551088 4.19743 0.360322 4.32636 0.21967C4.4553 0.0790176 4.63016 0 4.8125 0V0ZM1.375 6V21C1.375 21.3978 1.51987 21.7794 1.77773 22.0607C2.03559 22.342 2.38533 22.5 2.75 22.5H19.25C19.6147 22.5 19.9644 22.342 20.2223 22.0607C20.4801 21.7794 20.625 21.3978 20.625 21V6H1.375Z" fill="black"/>
</svg>
