<svg width="18" height="29" viewBox="0 0 18 29" fill="none" xmlns="http://www.w3.org/2000/svg">
<path d="M17.3117 27.9023C17.7524 27.5045 18 26.9651 18 26.4026C18 25.8401 17.7524 25.3006 17.3117 24.9028L5.67462 14.4024L17.3117 3.90189C17.7399 3.5018 17.9769 2.96596 17.9715 2.40976C17.9662 1.85356 17.7189 1.32151 17.283 0.928198C16.8472 0.534891 16.2575 0.311798 15.6411 0.306965C15.0247 0.302132 14.4309 0.515947 13.9875 0.902361L0.688318 12.9026C0.247588 13.3004 0 13.8399 0 14.4024C0 14.9648 0.247588 15.5043 0.688318 15.9021L13.9875 27.9023C14.4283 28.3 15.0262 28.5234 15.6496 28.5234C16.273 28.5234 16.8708 28.3 17.3117 27.9023Z" fill="white"/>
</svg>
