<svg width="18" height="29" viewBox="0 0 18 29" fill="none" xmlns="http://www.w3.org/2000/svg">
<path d="M0.688318 1.21093C0.247587 1.60874 0 2.1482 0 2.7107C0 3.27319 0.247587 3.81266 0.688318 4.21046L12.3254 14.7109L0.688318 25.2114C0.260078 25.6115 0.023119 26.1473 0.0284748 26.7035C0.0338306 27.2597 0.281075 27.7918 0.716955 28.1851C1.15283 28.5784 1.74248 28.8015 2.35888 28.8063C2.97528 28.8111 3.56913 28.5973 4.01252 28.2109L17.3117 16.2107C17.7524 15.8129 18 15.2734 18 14.7109C18 14.1484 17.7524 13.609 17.3117 13.2112L4.01252 1.21093C3.57166 0.81325 2.9738 0.589844 2.35042 0.589844C1.72704 0.589844 1.12918 0.81325 0.688318 1.21093Z" fill="white"/>
</svg>
