<?xml version="1.0" encoding="utf-8"?>
<!-- Generator: Adobe Illustrator 22.0.1, SVG Export Plug-In . SVG Version: 6.00 Build 0)  -->
<svg version="1.1" id="Layer_1" xmlns="http://www.w3.org/2000/svg" xmlns:xlink="http://www.w3.org/1999/xlink" x="0px" y="0px"
	 viewBox="0 0 294 147" style="enable-background:new 0 0 294 147;" xml:space="preserve">
<style type="text/css">
	.st0{fill:none;stroke:#000000;stroke-miterlimit:10;}
	.st1{display:none;}
	.st2{display:inline;fill:none;stroke:#000000;stroke-miterlimit:10;}
	.st3{fill:#FFFFFF;stroke:#000000;stroke-miterlimit:10;}
</style>
<line class="st0" x1="5" y1="4.6" x2="5" y2="142"/>
<line class="st0" x1="286.7" y1="142" x2="5" y2="142"/>
<line class="st0" x1="286.7" y1="4.6" x2="5" y2="4.6"/>
<line class="st0" x1="286.7" y1="142" x2="286.7" y2="4.6"/>
<g class="st1">
	<line class="st2" x1="139.1" y1="30.8" x2="139.1" y2="115.8"/>
	<line class="st2" x1="269.2" y1="115.8" x2="269.2" y2="115.8"/>
	<line class="st2" x1="139.1" y1="115.8" x2="140.2" y2="115.8"/>
	<line class="st2" x1="269.2" y1="115.8" x2="139.1" y2="115.8"/>
	<line class="st2" x1="269.2" y1="30.8" x2="269.2" y2="115.8"/>
	<line class="st2" x1="139.1" y1="30.8" x2="269.2" y2="30.8"/>
</g>
<rect x="145.9" y="25.5" class="st3" width="125.7" height="96"/>
<line class="st0" x1="145.9" y1="25.5" x2="271.6" y2="121.5"/>
<line class="st0" x1="145.9" y1="121.5" x2="271.6" y2="25.5"/>
<g>
	<line class="st0" x1="23.9" y1="50.5" x2="127.8" y2="50.5"/>
	<line class="st0" x1="24.2" y1="96.1" x2="128" y2="96.1"/>
	<line class="st0" x1="23.8" y1="84.6" x2="127.7" y2="84.6"/>
	<line class="st0" x1="23.7" y1="73.7" x2="127.7" y2="73.7"/>
	<line class="st0" x1="23.9" y1="62.1" x2="127.8" y2="62.1"/>
</g>
</svg>
