<svg width="34" height="43" viewBox="0 0 34 43" fill="none" xmlns="http://www.w3.org/2000/svg">
<path d="M17 0C12.493 0.00528358 8.17203 1.78676 4.98507 4.95364C1.79811 8.12052 0.00533517 12.4142 1.80863e-05 16.8929C-0.00538001 20.5528 1.19771 24.1135 3.42474 27.0286C3.42474 27.0286 3.88838 27.6352 3.9641 27.7227L17 43L30.0421 27.715C30.1101 27.6336 30.5753 27.0286 30.5753 27.0286L30.5768 27.024C32.8027 24.1101 34.0053 20.5511 34 16.8929C33.9947 12.4142 32.2019 8.12052 29.0149 4.95364C25.828 1.78676 21.507 0.00528358 17 0ZM17 23.0357C15.7774 23.0357 14.5822 22.6754 13.5656 22.0005C12.549 21.3255 11.7566 20.3661 11.2888 19.2436C10.8209 18.1212 10.6984 16.886 10.937 15.6944C11.1755 14.5028 11.7643 13.4083 12.6288 12.5492C13.4933 11.6901 14.5948 11.1051 15.794 10.868C16.9931 10.631 18.2361 10.7527 19.3657 11.2176C20.4953 11.6825 21.4607 12.4699 22.14 13.4801C22.8193 14.4903 23.1818 15.6779 23.1818 16.8929C23.1798 18.5214 22.5278 20.0827 21.3689 21.2343C20.2101 22.3858 18.6389 23.0337 17 23.0357Z" fill="#FC612B"/>
</svg>
