<svg width="18" height="10" viewBox="0 0 18 10" fill="none" xmlns="http://www.w3.org/2000/svg">
<path d="M1.04518 0.616227C1.27959 0.381889 1.59748 0.250244 1.92893 0.250244C2.26039 0.250244 2.57827 0.381889 2.81268 0.616227L9.00018 6.80373L15.1877 0.616227C15.4234 0.38853 15.7392 0.262536 16.0669 0.265384C16.3947 0.268232 16.7082 0.399694 16.94 0.631454C17.1717 0.863214 17.3032 1.17673 17.306 1.50448C17.3089 1.83222 17.1829 2.14797 16.9552 2.38373L9.88393 9.45498C9.64952 9.68932 9.33164 9.82096 9.00018 9.82096C8.66873 9.82096 8.35084 9.68932 8.11643 9.45498L1.04518 2.38373C0.810844 2.14932 0.679199 1.83143 0.679199 1.49998C0.679199 1.16852 0.810844 0.850637 1.04518 0.616227Z" fill="black"/>
</svg>
